<svg width="30" height="30" viewBox="0 0 30 30" fill="none" xmlns="http://www.w3.org/2000/svg">
<g clip-path="url(#clip0)">
<path d="M23.6171 4.75435C23.2857 4.75435 22.9493 4.6848 22.6289 4.53762C22.052 4.2726 21.6128 3.79886 21.3921 3.20361C21.1716 2.60835 21.1961 1.96277 21.461 1.38585C21.7258 0.808995 22.1996 0.369717 22.7949 0.149111C23.3902 -0.0714948 24.0357 -0.0470611 24.6127 0.2179C25.8036 0.764815 26.3276 2.17869 25.7807 3.36966C25.3808 4.24019 24.5177 4.75435 23.6171 4.75435ZM23.6214 1.06066C23.467 1.06066 23.3124 1.08814 23.1633 1.14333C22.8336 1.26556 22.5712 1.50878 22.4245 1.82829C22.2777 2.14787 22.2641 2.50546 22.3864 2.83517C22.5086 3.16488 22.7518 3.4272 23.0713 3.57398C23.7309 3.87697 24.5142 3.5867 24.8171 2.92705C25.12 2.26734 24.8298 1.48423 24.1701 1.18136C23.9951 1.10109 23.8085 1.06066 23.6214 1.06066ZM25.2989 3.14841H25.2996H25.2989Z" fill="#CCC8C1"/>
<path d="M16.6484 26.7369C16.4424 27.1856 16.1596 27.5759 15.8234 27.8981C14.7271 28.9475 13.0596 29.2811 11.5963 28.6091C10.133 27.9371 9.2993 26.4548 9.38098 24.9395C9.40629 24.4745 9.51803 24.0057 9.7241 23.557L16.6484 26.7369Z" fill="#E5E5E5"/>
<path d="M16.6484 26.7369C16.4423 27.1856 16.1596 27.5759 15.8234 27.8981L9.38098 24.9394C9.40629 24.4744 9.51803 24.0057 9.72411 23.5569L16.6484 26.7369Z" fill="#CCC8C1"/>
<path d="M11.6319 24.434L9.72417 23.5579C8.84608 25.4698 9.68438 27.732 11.5964 28.61C11.9273 28.762 12.2689 28.8615 12.6119 28.9139C11.3541 27.8346 10.9058 26.015 11.6319 24.434Z" fill="#93918E"/>
<path d="M22.8501 4.05611C18.2713 1.95329 12.9286 3.79964 10.0454 10.0779L8.84684 12.6877C7.95832 14.6226 5.45502 16.1412 3.18562 17.173C1.67735 17.8587 1.66768 19.9956 3.17331 20.687L13.1156 25.2529L23.058 29.8188C24.5636 30.5103 26.1781 29.1103 25.7154 27.5195C25.0191 25.1259 24.5397 22.2374 25.4283 20.3025L26.6269 17.6926C29.51 11.4145 27.4289 6.15886 22.8501 4.05611Z" fill="#CCC8C1"/>
<path d="M6.36518 18.6332C8.63458 17.6015 11.1379 16.0827 12.0264 14.1479L13.2249 11.5381C15.7657 6.00546 20.2164 3.9153 24.3712 4.93571C23.902 4.60061 23.3939 4.30588 22.8501 4.05616C18.2713 1.95328 12.9286 3.79963 10.0455 10.0778L8.84692 12.6877C7.9584 14.6225 5.45509 16.1412 3.18569 17.173C1.67743 17.8587 1.66776 19.9956 3.17339 20.687C3.17339 20.687 4.58966 21.3374 6.35293 22.1472C4.84724 21.4558 4.85697 19.3189 6.36518 18.6332Z" fill="#93918E"/>
</g>
<defs>
<clipPath id="clip0">
<rect width="30" height="30" fill="white"/>
</clipPath>
</defs>
</svg>
